<?xml version="1.0" standalone="no"?>
<!DOCTYPE svg PUBLIC "-//W3C//DTD SVG 20010904//EN"
 "http://www.w3.org/TR/2001/REC-SVG-20010904/DTD/svg10.dtd">
<svg version="1.0" xmlns="http://www.w3.org/2000/svg"
 width="64.000000pt" height="64.000000pt" viewBox="0 0 64.000000 64.000000"
 preserveAspectRatio="xMidYMid meet">

<g transform="translate(0.000000,64.000000) scale(0.100000,-0.100000)"
fill="#000000" stroke="none">
<path d="M112 574 c-50 -26 -77 -70 -77 -129 0 -49 3 -55 138 -232 75 -101
142 -183 147 -183 5 0 72 82 147 183 135 177 138 183 138 232 0 60 -27 104
-81 130 -67 32 -157 0 -186 -65 -7 -17 -15 -30 -18 -30 -3 0 -11 13 -18 30
-29 65 -124 97 -190 64z m142 -19 c13 -9 32 -32 41 -51 20 -43 30 -43 50 0 9
19 28 42 41 51 26 17 84 31 84 21 0 -4 -23 -41 -51 -82 l-51 -76 18 -34 c18
-33 19 -33 95 -36 l76 -3 -63 -83 -63 -83 -32 48 c-31 47 -34 49 -79 49 -45 0
-48 -2 -79 -49 l-32 -48 -63 83 -63 83 76 3 c76 3 77 3 95 36 l18 34 -51 76
c-28 41 -51 78 -51 82 0 10 58 -4 84 -21z"/>
<path d="M290 375 c-15 -18 -10 -45 13 -59 34 -22 73 27 47 59 -16 19 -44 19
-60 0z"/>
</g>
</svg>
