<?xml version="1.0" standalone="no"?>
<!DOCTYPE svg PUBLIC "-//W3C//DTD SVG 20010904//EN"
 "http://www.w3.org/TR/2001/REC-SVG-20010904/DTD/svg10.dtd">
<svg version="1.0" xmlns="http://www.w3.org/2000/svg"
 width="64.000000pt" height="64.000000pt" viewBox="0 0 64.000000 64.000000"
 preserveAspectRatio="xMidYMid meet">

<g transform="translate(0.000000,64.000000) scale(0.100000,-0.100000)"
fill="#000000" stroke="none">
<path d="M230 566 c-5 -15 -9 -41 -7 -59 2 -31 1 -32 -42 -32 -36 0 -47 -5
-64 -27 -20 -27 -20 -29 -4 -63 9 -19 22 -35 29 -35 8 0 9 3 3 8 -5 4 -11 23
-12 42 -1 27 0 31 7 15 7 -16 9 -17 9 -3 1 9 9 19 19 21 9 2 7 3 -5 2 -13 -1
-23 2 -23 6 0 12 37 11 60 -1 13 -7 33 -6 65 2 39 11 50 10 78 -4 17 -10 42
-18 55 -20 23 -3 22 -4 -17 -60 -52 -74 -47 -88 30 -88 l59 0 -6 -28 c-8 -35
-41 -112 -48 -112 -3 0 -22 25 -42 55 -21 31 -44 55 -54 55 -10 0 -33 -24 -54
-55 -20 -30 -39 -55 -42 -55 -7 0 -40 77 -48 113 l-6 27 59 0 c43 0 60 4 65
15 8 22 -82 148 -101 141 -8 -3 -19 -6 -24 -6 -5 0 -9 -5 -9 -11 0 -5 5 -7 12
-3 7 4 8 3 4 -5 -4 -6 -11 -9 -16 -6 -12 8 -1 -122 17 -185 20 -73 94 -150
143 -150 49 0 122 77 144 149 23 80 21 169 -5 197 l-20 22 43 6 c48 7 112 41
104 55 -5 8 -30 5 -134 -19 -29 -6 -60 -9 -69 -6 -14 6 -14 8 2 26 15 17 16
24 6 47 -13 27 -26 23 -33 -12 -2 -11 -11 -21 -20 -23 -14 -3 -16 3 -11 31 8
54 -13 54 -40 1 l-24 -48 -17 26 c-12 19 -14 31 -7 49 l10 24 1 -25 c0 -14 5
-32 10 -40 7 -11 8 -5 4 20 -9 49 -21 58 -34 26z m144 -67 c-9 -10 -22 -19
-27 -19 -6 0 -3 8 6 18 10 10 17 27 17 38 1 18 1 18 11 1 8 -14 7 -23 -7 -38z
m-30 -27 c16 -7 26 -15 23 -18 -3 -3 -18 1 -34 9 -17 9 -35 11 -48 6 -30 -11
-57 -11 -50 2 4 6 13 8 21 5 7 -3 16 -1 18 3 7 11 33 8 70 -7z m231 8 c-3 -5
-12 -10 -18 -10 -7 0 -6 4 3 10 19 12 23 12 15 0z m-353 -28 c6 -6 -9 -5 -32
1 -38 10 -43 10 -56 -8 -8 -11 -13 -31 -10 -45 5 -24 5 -24 -6 -3 -8 18 -7 28
7 49 15 23 22 26 53 21 19 -4 39 -10 44 -15z"/>
<path d="M310 270 c0 -5 5 -10 10 -10 6 0 10 5 10 10 0 6 -4 10 -10 10 -5 0
-10 -4 -10 -10z"/>
</g>
</svg>
